<svg width="300" height="300" viewBox="0 0 300 300" fill="none" xmlns="http://www.w3.org/2000/svg">
<circle cx="150" cy="150" r="150" fill="#B38427"/>
<g filter="url(#filter0_d)">
<path d="M226.19 146.879C226.19 105.117 192.338 71.2642 150.576 71.2642C108.814 71.2642 74.8084 105.384 74.9613 147.146C75.0377 167.893 83.4435 186.654 97.0458 200.256C107.63 210.84 115.348 223.945 119.245 238.388L125.358 260.931H174.915L180.684 239.573C184.658 224.824 192.682 211.489 203.571 200.753C217.517 187.074 226.19 168.008 226.19 146.879Z" fill="white"/>
<path d="M162 287.372H137.853C131.013 287.372 125.129 282.328 124.747 275.909L122.722 251.15L177.437 250.806L175.106 275.909C174.724 282.328 168.84 287.372 162 287.372Z" fill="#59595B"/>
<path d="M172.508 261.581C157.224 262.23 141.864 261.466 126.581 262.116C125.205 262.192 125.32 264.141 126.657 264.217C141.941 264.714 157.301 263.759 172.584 264.255C174.342 264.332 174.265 261.504 172.508 261.581Z" fill="#808183"/>
<path d="M172.508 268.229C157.224 268.879 141.864 268.114 126.581 268.764C125.205 268.84 125.32 270.789 126.657 270.865C141.941 271.362 157.301 270.407 172.584 270.904C174.342 270.98 174.265 268.153 172.508 268.229Z" fill="#808183"/>
<path d="M156.727 32.8262C156.727 37.7168 154.129 55.2163 150.958 55.2163C147.748 55.2163 145.189 37.7168 145.189 32.8262C145.189 27.9355 147.748 24 150.958 24C154.129 24 156.727 27.9355 156.727 32.8262Z" fill="white"/>
<path d="M228.827 59.7247C225.121 62.896 213.544 76.2689 215.607 78.7143C217.708 81.1214 232.648 71.6839 236.354 68.5126C240.06 65.3413 241.359 60.7945 239.258 58.3874C237.195 55.942 232.533 56.5534 228.827 59.7247Z" fill="white"/>
<path d="M256.948 137.899C252.096 138.511 234.405 138.167 234.023 134.996C233.603 131.824 250.682 127.048 255.496 126.437C260.349 125.826 264.59 127.889 264.972 131.06C265.354 134.231 261.763 137.288 256.948 137.899Z" fill="white"/>
<path d="M79.6609 53.9169C83.4818 56.9354 95.7085 69.7734 93.7217 72.2952C91.7348 74.8169 76.375 66.0672 72.5159 63.0487C68.6951 60.0302 67.1668 55.5598 69.1536 53.0381C71.1404 50.5163 75.8401 50.8984 79.6609 53.9169Z" fill="white"/>
<path d="M43.0572 125.367C47.9097 125.979 65.6002 125.635 65.9823 122.463C66.4026 119.292 49.3234 114.516 44.5091 113.905C39.6567 113.293 35.4155 115.357 35.0334 118.528C34.6131 121.699 38.2047 124.756 43.0572 125.367Z" fill="white"/>
<path d="M183.206 185.392C180.761 183.596 178.888 181.304 177.513 178.667C180.264 175.267 181.448 170.72 181.983 166.479C182.289 163.881 182.365 161.283 182.404 158.684C182.442 156.163 182.098 154.061 179.996 152.495C178.086 151.119 175.564 152.342 174.112 153.717C172.431 155.284 171.629 157.844 170.979 159.945C169.68 164.225 169.68 168.848 170.521 173.204C170.788 174.732 171.247 176.222 171.782 177.674C170.712 178.515 169.489 179.164 168.152 179.623C164.025 180.96 160.892 178.553 158.982 175.038C158.676 174.464 158.37 173.853 158.103 173.204C158.447 172.325 158.753 171.446 159.02 170.605C160.434 166.402 161.198 162.047 161.542 157.653C161.847 154.023 161.924 149.667 158.447 147.489C157.339 146.802 156.04 147.336 155.352 148.292C150.232 155.398 150.538 164.798 153.289 172.86C152.41 174.999 151.34 177.063 150.194 179.088C148.895 181.304 146.449 184.704 143.469 184.284C140.718 183.864 138.502 180.425 137.126 178.247C136.133 176.681 135.331 174.999 134.719 173.242C135.063 172.325 135.407 171.37 135.713 170.453C136.897 166.746 137.547 162.849 137.852 158.952C138.12 155.704 138.196 151.157 134.681 149.591C133.65 149.132 132.121 149.17 131.586 150.393C128.491 157.309 127.88 164.912 129.829 172.287C129.905 172.554 129.982 172.783 130.058 173.013C127.918 178.476 124.632 183.558 120.659 187.876C118.863 189.824 121.69 192.652 123.562 190.779C127.116 187.15 130.058 183.061 132.35 178.591C133.038 179.89 133.802 181.113 134.643 182.297C136.974 185.507 139.878 188.525 144.042 188.716C147.939 188.945 151.111 185.66 153.212 182.794C154.206 181.418 155.123 179.928 155.887 178.4C157.797 181.457 160.548 183.864 164.293 184.36C167.731 184.857 171.094 183.787 173.921 181.877C175.564 184.704 177.704 187.226 180.226 189.328C182.938 191.773 186.186 187.57 183.206 185.392ZM157.148 153.832C157.301 155.628 156.88 157.882 156.804 158.99C156.613 160.977 156.269 163.002 155.81 164.951C155.314 161.091 155.658 157.118 157.148 153.832ZM174.8 165.256C174.953 163.384 175.45 161.512 176.061 159.754C176.328 158.952 176.71 158.188 177.169 157.462C177.207 157.423 177.36 157.194 177.513 157.003C177.551 157.118 177.589 157.309 177.589 157.538C177.819 162.123 177.436 167.09 176.023 171.446C175.832 171.981 175.641 172.516 175.411 173.013C174.838 170.491 174.609 167.816 174.8 165.256Z" fill="#F4D242"/>
<path d="M187.485 174.273C179.462 198.803 170.979 223.218 161.886 247.404C160.816 250.308 165.248 252.066 166.356 249.162C175.411 224.938 183.817 200.522 191.383 175.802C192.147 173.242 188.326 171.675 187.485 174.273Z" fill="#F4D242"/>
<path d="M114.354 172.707C120.773 197.733 126.772 222.874 132.083 248.13C132.733 251.149 137.432 250.27 136.783 247.252C131.395 221.957 125.358 196.855 118.443 171.943C117.755 169.344 113.705 170.109 114.354 172.707Z" fill="#F4D242"/>
</g>
<defs>
<filter id="filter0_d" x="31" y="24" width="238" height="271.372" filterUnits="userSpaceOnUse" color-interpolation-filters="sRGB">
<feFlood flood-opacity="0" result="BackgroundImageFix"/>
<feColorMatrix in="SourceAlpha" type="matrix" values="0 0 0 0 0 0 0 0 0 0 0 0 0 0 0 0 0 0 127 0"/>
<feOffset dy="4"/>
<feGaussianBlur stdDeviation="2"/>
<feColorMatrix type="matrix" values="0 0 0 0 0 0 0 0 0 0 0 0 0 0 0 0 0 0 0.25 0"/>
<feBlend mode="normal" in2="BackgroundImageFix" result="effect1_dropShadow"/>
<feBlend mode="normal" in="SourceGraphic" in2="effect1_dropShadow" result="shape"/>
</filter>
</defs>
</svg>
