<svg width="30" height="30" viewBox="0 0 30 30" fill="none" xmlns="http://www.w3.org/2000/svg">
<path d="M29.3853 7.13571C29.1666 6.91239 28.8992 6.73401 28.6007 6.61217C28.3022 6.49033 27.9792 6.42778 27.6527 6.42857H21.9665C21.9665 4.72361 21.2314 3.08848 19.923 1.88288C18.6145 0.677294 16.8399 0 14.9895 0C13.1391 0 11.3645 0.677294 10.056 1.88288C8.74761 3.08848 8.01254 4.72361 8.01254 6.42857H2.32631C1.99982 6.42778 1.6768 6.49033 1.37829 6.61217C1.07977 6.73401 0.812441 6.91239 0.593693 7.13571C0.377302 7.3582 0.213795 7.61993 0.113667 7.90408C0.0135395 8.18823 -0.0209957 8.48854 0.012279 8.78571L2.00072 27.1071C2.08749 27.9028 2.49299 28.64 3.13804 29.1749C3.7831 29.7098 4.62138 30.004 5.4892 30H24.5131C25.3809 30.004 26.2192 29.7098 26.8642 29.1749C27.5093 28.64 27.9148 27.9028 28.0016 27.1071L29.99 8.78571C30.0202 8.48701 29.9819 8.18579 29.8778 7.90156C29.7736 7.61733 29.6058 7.35642 29.3853 7.13571ZM14.9895 2.14286C16.2231 2.14286 17.4062 2.59439 18.2785 3.39811C19.1508 4.20184 19.6408 5.29193 19.6408 6.42857H10.3382C10.3382 5.29193 10.8282 4.20184 11.7005 3.39811C12.5728 2.59439 13.7559 2.14286 14.9895 2.14286ZM8.01254 8.57143V10.7143C8.01254 10.9984 8.13505 11.271 8.35312 11.4719C8.57119 11.6728 8.86696 11.7857 9.17536 11.7857C9.48377 11.7857 9.77954 11.6728 9.99761 11.4719C10.2157 11.271 10.3382 10.9984 10.3382 10.7143V8.57143H19.6408V10.7143C19.6408 10.9984 19.7633 11.271 19.9814 11.4719C20.1995 11.6728 20.4952 11.7857 20.8036 11.7857C21.112 11.7857 21.4078 11.6728 21.6259 11.4719C21.844 11.271 21.9665 10.9984 21.9665 10.7143V8.57143H27.6527L26.0247 23.5714H3.93101L2.32631 8.57143H8.01254ZM24.5131 27.8571H5.46594C5.17667 27.8585 4.89724 27.7604 4.68222 27.5821C4.46721 27.4038 4.33204 27.1581 4.30311 26.8929L4.18683 25.7143H25.7922L25.6643 26.8929C25.6355 27.1562 25.502 27.4005 25.2895 27.5785C25.0769 27.7566 24.8003 27.8558 24.5131 27.8571Z" fill="#B38425"/>
</svg>
