<svg width="300" height="300" viewBox="0 0 300 300" fill="none" xmlns="http://www.w3.org/2000/svg">
<circle cx="150" cy="150" r="150" fill="#B38427"/>
<g filter="url(#filter0_d)">
<path d="M115.952 241.44C115.952 241.44 115.952 242.639 116.353 245.037C116.754 247.435 117.557 250.633 119.162 254.63C120.767 258.627 123.576 263.023 127.188 267.02C131.201 271.017 136.417 275.014 142.838 277.412C146.048 278.611 149.66 279.41 153.271 279.81C154.876 280.21 156.883 279.81 158.889 279.81C160.093 279.41 163.303 279.41 164.507 279.011C171.73 277.812 178.953 273.815 184.17 267.819C189.387 261.824 193.4 254.23 194.604 245.437C195.005 244.238 195.005 243.439 195.005 242.24V240.641V238.642C195.005 237.443 195.005 236.644 195.005 235.445C195.005 234.246 195.005 233.446 194.604 232.247C194.202 228.251 192.597 224.254 190.591 221.056C186.578 214.262 179.756 209.066 171.73 206.268C167.717 204.669 163.705 203.87 159.29 203.07C154.876 202.271 150.864 202.671 145.647 202.271C136.016 201.472 127.188 201.072 118.36 200.672C109.531 200.273 101.506 199.873 93.8812 199.473C78.6324 198.674 66.1926 197.475 57.3644 197.075C48.5361 196.276 43.3194 195.876 43.3194 195.876C42.9181 195.876 42.5168 195.476 42.5168 195.077C42.5168 194.677 42.9181 194.277 43.3194 194.277C43.3194 194.277 48.5361 193.878 57.3644 193.078C66.1926 192.679 79.0337 191.479 93.8812 190.68C101.506 190.28 109.531 189.881 118.36 189.481C127.188 189.081 136.417 188.682 145.647 187.882C150.061 187.483 155.679 187.483 160.896 187.882C166.112 188.682 171.73 189.881 176.947 191.479C187.782 195.476 198.215 202.671 204.234 213.862C207.043 219.058 209.05 225.053 209.852 231.048C210.254 232.647 210.254 233.846 210.254 235.445C210.254 237.044 210.254 238.642 210.254 239.841V241.84C210.254 243.039 210.254 243.439 209.852 244.238C209.451 245.837 209.451 247.036 209.05 248.634C207.043 259.826 201.425 270.217 193.4 277.812C189.387 281.409 184.973 284.606 180.157 286.605C175.342 289.003 170.526 290.202 165.31 290.601C162.501 291.001 160.896 290.601 158.087 291.001C155.679 290.601 153.271 290.601 151.265 290.202C146.851 289.402 142.437 287.804 138.825 286.205C131.201 282.208 125.583 277.012 121.971 271.816C117.958 266.62 115.952 261.025 114.748 256.628C113.544 252.232 113.544 248.634 113.544 246.236C113.544 243.838 113.544 242.639 113.544 242.639C113.544 242.24 113.945 241.84 114.347 241.84C115.551 241.04 115.952 241.44 115.952 241.44Z" fill="white"/>
<path d="M146.851 117.538C146.851 117.538 146.851 116.339 146.851 114.74C146.851 112.741 147.252 109.944 148.857 106.346C150.061 102.749 152.87 98.7524 157.284 95.5549C161.698 92.3574 167.717 89.9593 174.539 90.359C181.762 90.7587 188.985 94.3559 194.202 100.351C196.61 103.549 198.616 107.146 199.82 111.143C200.221 113.141 200.623 115.14 201.024 117.538C201.024 118.337 201.024 119.536 201.024 120.335C201.024 121.534 201.024 122.734 200.623 123.933C199.82 128.329 197.814 132.726 195.005 136.323C191.794 139.92 187.782 142.718 183.769 144.317C179.355 145.915 174.941 146.715 170.526 147.114C166.112 147.114 162.099 147.114 158.087 146.715C125.583 145.516 93.0786 145.116 68.6003 144.317C44.122 143.517 28.0706 143.117 28.0706 143.117C27.6693 143.117 27.6693 142.718 27.6693 142.718C27.6693 142.318 27.6693 142.318 28.0706 142.318C28.0706 142.318 44.122 141.918 68.6003 141.119C93.0786 140.32 125.583 139.92 158.087 138.721C162.099 138.721 166.112 138.321 170.125 138.321C173.737 137.922 177.348 137.522 180.559 135.923C186.979 133.525 191.393 128.329 192.196 122.334L192.597 120.335C192.597 119.536 192.597 118.337 192.597 117.538C192.597 117.138 192.597 115.939 192.597 115.539C192.597 114.74 192.196 113.94 192.196 113.141C191.393 109.944 190.189 107.146 188.584 104.748C185.374 99.9515 179.756 96.754 174.941 95.9546C169.323 95.1552 164.507 96.3543 160.494 98.7524C156.481 101.151 153.673 103.948 152.067 107.146C150.462 109.944 149.66 112.741 149.258 114.34C148.857 116.339 148.857 117.138 148.857 117.138C148.857 117.538 148.456 117.538 148.456 117.538C146.851 117.937 146.851 117.937 146.851 117.538Z" fill="white"/>
<path d="M122.372 105.548C122.372 105.548 122.372 105.148 122.372 104.349C122.372 103.549 122.372 102.35 122.372 100.352C122.372 96.7547 122.372 91.5588 124.379 85.1639C125.984 78.7689 129.194 71.1749 134.812 63.5809C140.43 55.9868 148.857 48.7925 160.093 43.5966C165.711 41.1985 171.73 39.2 178.151 38.4007C179.756 38.001 181.361 38.001 182.966 38.001C183.368 38.001 183.769 38.001 184.571 38.001H185.775C186.578 38.001 187.38 38.001 188.183 38.001C191.795 38.001 195.005 38.4007 198.616 38.8003C212.661 41.1985 226.706 48.7925 237.14 60.7831C247.573 72.3739 253.994 87.9617 255.599 104.349C255.599 106.747 256 107.946 256 110.344C256 112.742 256 114.741 256 116.739C255.599 121.136 254.796 125.132 253.994 129.529C250.783 137.922 246.77 145.916 241.152 152.711C229.917 166.3 213.865 174.294 198.215 177.891C190.189 179.49 182.565 180.289 174.941 180.289C167.717 180.289 160.896 179.49 154.074 179.09C140.43 178.291 127.188 177.491 114.748 177.092C102.308 176.692 90.6709 175.892 79.435 175.093C68.6003 174.693 58.5682 173.894 49.74 173.095C40.9117 172.695 33.2873 171.896 26.8668 171.496C14.0257 170.697 6.80257 169.897 6.80257 169.897C6.40128 170.297 6 169.897 6 169.498C6 169.098 6.40128 168.698 6.80257 168.698C6.80257 168.698 14.0257 168.298 26.8668 167.099C33.2873 166.7 40.9117 166.3 49.74 165.501C58.5682 165.101 68.6003 164.302 79.435 163.502C90.2697 163.103 102.308 162.303 114.748 161.504C127.188 161.104 140.43 160.305 154.074 159.505C160.896 159.106 168.119 158.306 174.539 158.306C180.96 158.306 186.979 157.507 192.998 155.908C205.037 153.11 216.273 147.115 223.496 138.322C227.108 133.926 229.917 128.73 231.522 123.534C232.324 120.736 232.726 117.938 233.127 115.14C233.127 113.542 233.528 112.342 233.528 110.744C233.528 109.545 233.528 107.147 233.528 105.948C233.127 93.957 228.713 81.9664 221.49 72.7736C214.668 63.5809 204.636 57.1859 194.202 54.3881C191.795 53.5887 188.986 53.189 186.578 52.7893C185.775 52.7893 184.973 52.7893 184.571 52.7893H183.368C183.368 52.7893 182.966 52.7893 182.565 52.7893C181.361 52.7893 179.756 52.7893 178.552 52.7893C173.335 53.189 168.52 53.9884 163.705 55.1875C154.475 57.9853 146.449 63.5809 140.831 69.1764C135.213 75.1717 131.201 81.167 128.793 86.7626C126.385 92.3582 125.181 97.1544 124.78 100.352C124.379 101.951 124.379 103.15 124.379 103.949C124.379 104.748 124.379 105.148 124.379 105.148C124.379 105.548 123.576 106.347 123.175 105.948C122.774 106.747 122.372 106.347 122.372 105.548Z" fill="white"/>
</g>
<defs>
<filter id="filter0_d" x="2" y="38.001" width="258" height="261" filterUnits="userSpaceOnUse" color-interpolation-filters="sRGB">
<feFlood flood-opacity="0" result="BackgroundImageFix"/>
<feColorMatrix in="SourceAlpha" type="matrix" values="0 0 0 0 0 0 0 0 0 0 0 0 0 0 0 0 0 0 127 0"/>
<feOffset dy="4"/>
<feGaussianBlur stdDeviation="2"/>
<feColorMatrix type="matrix" values="0 0 0 0 0 0 0 0 0 0 0 0 0 0 0 0 0 0 0.25 0"/>
<feBlend mode="normal" in2="BackgroundImageFix" result="effect1_dropShadow"/>
<feBlend mode="normal" in="SourceGraphic" in2="effect1_dropShadow" result="shape"/>
</filter>
</defs>
</svg>
