<svg width="53" height="50" viewBox="0 0 53 50" fill="none" xmlns="http://www.w3.org/2000/svg">
<path d="M51.1939 11.8929C50.8128 11.5206 50.3471 11.2233 49.827 11.0203C49.307 10.8172 48.7442 10.713 48.1754 10.7143H38.2691C38.2691 7.87268 36.9885 5.14746 34.709 3.13814C32.4295 1.12882 29.3378 0 26.1141 0C22.8904 0 19.7987 1.12882 17.5192 3.13814C15.2397 5.14746 13.9591 7.87268 13.9591 10.7143H4.0528C3.484 10.713 2.92126 10.8172 2.4012 11.0203C1.88113 11.2233 1.4154 11.5206 1.03431 11.8929C0.657321 12.2637 0.372465 12.6999 0.198027 13.1735C0.0235881 13.6471 -0.0365778 14.1476 0.0213919 14.6429L3.48557 45.1786C3.63674 46.5046 4.34319 47.7333 5.46698 48.6249C6.59076 49.5164 8.05118 50.0067 9.56306 50H42.7057C44.2176 50.0067 45.678 49.5164 46.8018 48.6249C47.9256 47.7333 48.632 46.5046 48.7832 45.1786L52.2474 14.6429C52.2999 14.145 52.2333 13.643 52.0519 13.1693C51.8704 12.6956 51.5781 12.2607 51.1939 11.8929ZM26.1141 3.57143C28.2633 3.57143 30.3244 4.32398 31.844 5.66352C33.3637 7.00307 34.2175 8.81988 34.2175 10.7143H18.0108C18.0108 8.81988 18.8645 7.00307 20.3842 5.66352C21.9039 4.32398 23.965 3.57143 26.1141 3.57143ZM13.9591 14.2857V17.8571C13.9591 18.3307 14.1726 18.7849 14.5525 19.1198C14.9324 19.4547 15.4477 19.6429 15.985 19.6429C16.5222 19.6429 17.0375 19.4547 17.4174 19.1198C17.7974 18.7849 18.0108 18.3307 18.0108 17.8571V14.2857H34.2175V17.8571C34.2175 18.3307 34.4309 18.7849 34.8108 19.1198C35.1907 19.4547 35.706 19.6429 36.2433 19.6429C36.7806 19.6429 37.2958 19.4547 37.6758 19.1198C38.0557 18.7849 38.2691 18.3307 38.2691 17.8571V14.2857H48.1754L45.3393 39.2857H6.84845L4.0528 14.2857H13.9591ZM42.7057 46.4286H9.52255C9.01859 46.4308 8.53178 46.2674 8.15719 45.9702C7.78259 45.673 7.54711 45.2634 7.49672 44.8214L7.29413 42.8571H44.9341L44.7113 44.8214C44.6612 45.2604 44.4286 45.6674 44.0583 45.9642C43.688 46.2609 43.2062 46.4264 42.7057 46.4286Z" fill="white"/>
</svg>
